HIERARCHY
ROOT Hips
{
	OFFSET 0.000000 0.000000 0.000000 
	CHANNELS 6 Xposition Yposition Zposition Yrotation Zrotation Xrotation 
	JOINT Lumbar
	{
		OFFSET 0.000000 0.000000 0.000000 
		CHANNELS 3 Zrotation Xrotation Yrotation
		JOINT Neck
		{
			OFFSET 0.000000 0.445665 0.000000 
			CHANNELS 3 Zrotation Xrotation Yrotation
			End Site
			{
				OFFSET 0.000000 0.227535 0.000000 
			}
		}
		JOINT RightShoulder
		{
			OFFSET 0.019635 0.377685 0.194865 
			CHANNELS 3 Zrotation Xrotation Yrotation
			JOINT RightElbow
			{
				OFFSET 0.000000 -0.243375 0.000000 
				CHANNELS 2 Zrotation Yrotation
				JOINT RightWrist
				{
					OFFSET 0.000000 -0.264825 0.000000 
					CHANNELS 2 Zrotation Xrotation
					End Site
					{
						OFFSET 0.006600 -0.176220 0.000990 
					}
				}
			}
		}
		JOINT LeftShoulder
		{
			OFFSET 0.019635 0.377685 -0.194865 
			CHANNELS 3 Zrotation Xrotation Yrotation
			JOINT LeftElbow
			{
				OFFSET 0.000000 -0.243375 0.000000 
				CHANNELS 2 Zrotation Yrotation
				JOINT LeftWrist
				{
					OFFSET 0.000000 -0.264825 0.000000 
					CHANNELS 2 Zrotation Xrotation
					End Site
					{
						OFFSET 0.006600 -0.176220 -0.000990 
					}
				}
			}
		}
	}
	JOINT RightHip
	{
		OFFSET 0.052140 -0.069960 0.075570 
		CHANNELS 3 Zrotation Xrotation Yrotation
		JOINT RightKnee
		{
			OFFSET 0.000000 -0.402270 0.000000 
			CHANNELS 1 Zrotation
			JOINT RightAnkle
			{
				OFFSET 0.000000 -0.404085 0.000000 
				CHANNELS 3 Zrotation Xrotation Yrotation
				End Site
				{
					OFFSET 0.204105 -0.089430 0.008415 
				}
			}
		}
	}
	JOINT LeftHip
	{
		OFFSET 0.052140 -0.069960 -0.075570 
		CHANNELS 3 Zrotation Xrotation Yrotation
		JOINT LeftKnee
		{
			OFFSET 0.000000 -0.402270 0.000000 
			CHANNELS 1 Zrotation
			JOINT LeftAnkle
			{
				OFFSET 0.000000 -0.404085 0.000000 
				CHANNELS 3 Zrotation Xrotation Yrotation
				End Site
				{
					OFFSET 0.204105 -0.089430 -0.008415 
				}
			}
		}
	}
}
MOTION
Frames: 31
Frame Time: 0.02
0.00029 3e-05 -0.00032 28.31336 -18.70768 -3.75305 44.43694 -0.96981 -7.16842 -11.74685 3.28882 -0.39082 -22.82235 -9.91564 10.78841 29.8942 61.50866 0.08683 -4.61137 -24.53123 10.00028 -7.23011 33.41375 -77.37333 6.95518 3.48272 27.5689 -0.67766 1.05011 -20.49469 -7.78008 -5.60962 -3.72869 33.34368 2.69744 -0.8027 -24.44352 -6.61845 3.75614 2.73952
-0.00017 -1e-05 -0.00014 28.26454 -18.7225 -3.7618 44.40897 -0.96907 -7.16941 -11.7665 3.32267 -0.3912 -22.68499 -9.20614 8.34241 29.83945 68.76012 1.9028 -3.45861 -24.4868 9.39829 -5.65103 33.36469 -83.33442 8.75798 2.50036 27.6159 -0.78298 0.44685 -20.49794 -7.71656 -5.56652 -3.69673 33.38639 2.7769 -0.46574 -24.44512 -6.61868 3.74613 2.71864
-0.00062 -4e-05 3e-05 28.21583 -18.73727 -3.77057 44.38101 -0.96831 -7.17041 -11.78609 3.35645 -0.39158 -22.54812 -8.49967 5.90705 29.78492 75.98013 3.71088 -2.31084 -24.4425 8.79882 -4.07871 33.31569 -89.26976 10.55303 1.52227 27.6628 -0.88801 -0.15479 -20.50119 -7.65321 -5.52354 -3.66485 33.42901 2.85615 -0.12981 -24.44672 -6.61891 3.73614 2.69781
-0.00108 -8e-05 0.0002 28.16716 -18.75205 -3.7793 44.35311 -0.96757 -7.1714 -11.80568 3.3902 -0.39196 -22.4112 -7.79251 3.46918 29.73035 83.20748 5.5208 -1.16191 -24.3982 8.19881 -2.50486 33.26676 -95.21104 12.34983 0.54318 27.70966 -0.99301 -0.75622 -20.50443 -7.58989 -5.48057 -3.63299 33.47159 2.93538 0.20611 -24.44832 -6.61914 3.72616 2.67699
-0.00153 -0.00012 0.00038 28.11837 -18.76689 -3.788 44.32524 -0.96685 -7.17236 -11.82532 3.42403 -0.39234 -22.27375 -7.08197 1.01925 29.67552 90.47052 7.33967 -0.0073 -24.35378 7.59599 -0.92339 33.21782 -101.18154 14.15544 -0.44076 27.75663 -1.09831 -1.3592 -20.50767 -7.5264 -5.43751 -3.60105 33.51425 3.0148 0.54306 -24.44991 -6.61937 3.71616 2.65611
-0.00199 -0.00016 0.00055 28.06981 -18.78152 -3.79689 44.29708 -0.96602 -7.17344 -11.84481 3.45772 -0.39272 -22.13808 -6.38404 -1.38554 29.62162 97.60019 9.12513 1.12609 -24.30973 7.00355 0.6297 33.16868 -107.04311 15.92837 -1.4066 27.80337 -1.20277 -1.95801 -20.51095 -7.46335 -5.39468 -3.56931 33.55678 3.09368 0.87685 -24.45153 -6.61961 3.70618 2.63542
-0.00244 -0.00021 0.00073 28.02089 -18.79655 -3.8054 44.26953 -0.9654 -7.17431 -11.86458 3.49162 -0.3931 -21.99905 -5.66172 -3.8776 29.56597 104.98763 10.97514 2.30048 -24.265 6.39105 2.23767 33.12001 -113.11503 17.76429 -2.4074 27.85051 -1.30877 -2.56446 -20.51414 -7.3995 -5.35144 -3.5372 33.59953 3.17357 1.2166 -24.45308 -6.61982 3.69618 2.61436
-0.00289 -0.00024 0.0009 27.97223 -18.81121 -3.81426 44.24143 -0.96459 -7.17534 -11.8841 3.52537 -0.39347 -21.86302 -4.96149 -6.29084 29.51183 112.14239 12.76693 3.43786 -24.22088 5.79672 3.79595 33.0709 -118.99731 19.54362 -3.37666 27.89729 -1.4134 -3.16403 -20.51741 -7.33637 -5.30856 -3.50542 33.64208 3.25253 1.5509 -24.45471 -6.62007 3.68621 2.59364
-0.00335 -0.00028 0.00107 27.92415 -18.82542 -3.82353 44.21261 -0.96356 -7.1767 -11.9033 3.55877 -0.39385 -21.73099 -4.28973 -8.60162 29.45992 118.99413 14.48268 4.52707 -24.17753 5.2258 5.29017 33.0212 -124.63172 21.24817 -4.30477 27.94364 -1.51623 -3.75484 -20.52078 -7.27416 -5.26617 -3.47409 33.68439 3.33037 1.8785 -24.4564 -6.62034 3.67623 2.57333
-0.0038 -0.00033 0.00125 27.87351 -18.84224 -3.83042 44.18775 -0.96384 -7.17653 -11.9243 3.59367 -0.39424 -21.57693 -3.45855 -11.48355 29.39632 127.53343 16.62128 5.88463 -24.1298 4.52379 7.14297 32.97473 -131.64404 23.36617 -5.46188 27.99247 -1.62902 -4.39502 -20.52361 -7.20678 -5.22112 -3.44032 33.72808 3.41471 2.24453 -24.45763 -6.62041 3.66614 2.55065
-0.00426 -0.00036 0.00141 27.82779 -18.85354 -3.84232 44.15466 -0.96132 -7.17934 -11.94151 3.62573 -0.3946 -21.46871 -2.96089 -13.17235 29.35666 132.54849 17.87726 6.68174 -24.09131 4.096 8.24572 32.92156 -135.78044 24.62272 -6.14085 28.03609 -1.72103 -4.93162 -20.52755 -7.15022 -5.18157 -3.41161 33.76886 3.48528 2.52952 -24.45992 -6.62092 3.6564 2.533
-0.00475 -0.00033 0.00154 27.79962 -18.8496 -3.86823 44.09789 -0.95122 -7.19263 -11.94831 3.64755 -0.39486 -21.49312 -3.41076 -11.45544 29.38956 127.49592 16.60811 5.87813 -24.07847 4.44708 7.21844 32.84926 -131.69443 23.40338 -5.45439 28.06494 -1.75361 -5.17619 -20.53486 -7.12451 -5.15819 -3.3975 33.80155 3.5182 2.58989 -24.46439 -6.62258 3.64677 2.52889
-0.00525 -0.00028 0.00164 27.77558 -18.8401 -3.89913 44.03305 -0.93826 -7.20851 -11.95133 3.66704 -0.39509 -21.56238 -4.18962 -8.56411 29.44538 118.97623 14.4713 4.52309 -24.07487 5.06822 5.45267 32.77054 -124.78532 21.34042 -4.29833 28.08861 -1.76574 -5.31783 -20.54322 -7.10948 -5.14016 -3.38835 33.83129 3.53723 2.56947 -24.47008 -6.62468 3.63765 2.52986
-0.00574 -0.00024 0.00175 27.74708 -18.83326 -3.92756 43.97263 -0.92653 -7.22165 -11.95608 3.68911 -0.39534 -21.60654 -4.79668 -6.2971 29.48607 112.30452 12.79953 3.46177 -24.06682 5.54905 4.07 32.6951 -119.37951 19.73584 -3.39123 28.11498 -1.78881 -5.51212 -20.55091 -7.08876 -5.11894 -3.37643 33.86252 3.56252 2.5873 -24.47571 -6.62662 3.62891 2.52866
-0.00623 -0.00019 0.0019 27.72973 -18.826 -3.95683 43.90905 -0.91515 -7.24124 -11.96069 3.7045 -0.39554 -21.67036 -5.49809 -3.64824 29.54612 104.48353 10.82951 2.21854 -24.05979 6.1063 2.47974 32.61753 -113.02352 17.81037 -2.33056 28.14 -1.80496 -5.68292 -20.55944 -7.07148 -5.10084 -3.36661 33.89332 3.58808 2.59784 -24.47924 -6.62841 3.61764 2.52691
-0.00674 -0.00016 0.00195 27.68982 -18.81812 -3.98553 43.85012 -0.90231 -7.24819 -11.96479 3.73358 -0.39585 -21.70433 -6.08146 -1.51259 29.57202 98.22524 9.27242 1.22193 -24.05292 6.56631 1.15386 32.54362 -107.99542 16.35657 -1.48166 28.16645 -1.83061 -5.87634 -20.56643 -7.04973 -5.07762 -3.35368 33.92405 3.60971 2.60519 -24.48743 -6.63059 3.61168 2.52749
-0.00733 -0.00017 0.00177 27.58927 -18.81126 -4.01138 43.80618 -0.8867 -7.21813 -11.96754 3.79838 -0.39647 -21.64074 -6.2527 -1.11895 29.49183 97.22441 9.09378 1.05715 -24.04386 6.70994 0.67764 32.47591 -107.17255 16.38471 -1.30511 28.1997 -1.8882 -6.17414 -20.5694 -7.01157 -5.03807 -3.33029 33.95773 3.62436 2.61672 -24.50834 -6.6341 3.62101 2.53362
-0.00796 -0.0002 0.00149 27.46528 -18.80374 -4.03651 43.76716 -0.86965 -7.17565 -11.97006 3.87758 -0.39719 -21.54635 -6.29468 -1.27602 29.37776 97.89972 9.35612 1.15688 -24.03507 6.74389 0.50206 32.41372 -107.80558 16.9201 -1.36185 28.23436 -1.95594 -6.49504 -20.57071 -6.96883 -4.99338 -3.30372 33.99103 3.63535 2.62883 -24.53387 -6.63793 3.63555 2.54188
-0.00857 -0.00023 0.00123 27.35036 -18.79559 -4.06196 43.72577 -0.85288 -7.13967 -11.97325 3.95185 -0.39787 -21.46875 -6.39949 -1.15643 29.28305 97.74695 9.39983 1.12519 -24.02596 6.81481 0.23239 32.35183 -107.88216 17.24355 -1.33156 28.26726 -2.01857 -6.79462 -20.57244 -6.92911 -4.95161 -3.27903 34.02288 3.64785 2.64553 -24.5572 -6.64136 3.64716 2.5489
-0.00916 -0.00025 0.00107 27.24263 -18.79104 -4.08748 43.68469 -0.83754 -7.09968 -11.97395 4.01903 -0.39854 -21.38086 -6.49872 -1.10604 29.17181 97.75243 9.49009 1.12129 -24.01654 6.94552 -0.23215 32.27543 -107.446 17.46668 -1.21012 28.30437 -2.08256 -7.13687 -20.57555 -6.88575 -4.90748 -3.25266 34.06134 3.66092 2.6401 -24.58103 -6.64585 3.661 2.55714
-0.00982 -0.00027 0.00068 27.11386 -18.77906 -4.11275 43.64421 -0.81899 -7.06569 -11.9798 4.1047 -0.39924 -21.30661 -6.57436 -1.05909 29.0874 97.8725 9.59953 1.12985 -24.00954 6.92713 -0.22296 32.23368 -108.42273 18.02067 -1.33327 28.33351 -2.14642 -7.39634 -20.57548 -6.84882 -4.86708 -3.22901 34.08614 3.67161 2.68046 -24.60487 -6.64825 3.67164 2.56342
-0.01066 -0.00029 -0.00025 26.93601 -18.74556 -4.13648 43.60441 -0.79129 -7.0457 -12.00035 4.23555 -0.39996 -21.27639 -6.61666 -0.88067 29.07911 97.9084 9.65767 1.10807 -23.99535 6.4811 1.13711 32.2642 -113.28059 19.44984 -2.13519 28.33724 -2.20757 -7.42806 -20.56635 -6.82991 -4.83738 -3.21315 34.0719 3.68114 2.86059 -24.62776 -6.64437 3.67014 2.56262
-0.01158 -0.00032 -0.0014 26.73694 -18.70483 -4.16015 43.565 -0.76049 -7.03306 -12.02618 4.38504 -0.40071 -21.26093 -6.63797 -0.69421 29.10012 98.01765 9.72365 1.09247 -23.98731 5.89639 2.94515 32.33609 -119.46037 21.18212 -3.16624 28.33366 -2.26839 -7.37492 -20.55437 -6.81771 -4.81173 -3.20017 34.04422 3.68763 3.08484 -24.65049 -6.63846 3.66563 2.55999
-0.01248 -0.00034 -0.00247 26.54565 -18.66825 -4.18449 43.52542 -0.73163 -7.02092 -12.04915 4.52746 -0.40144 -21.23927 -6.66709 -0.52093 29.11157 98.10443 9.78797 1.07683 -23.98401 5.40059 4.47607 32.40036 -124.83057 22.7245 -4.05515 28.33525 -2.32933 -7.35694 -20.54389 -6.80294 -4.78478 -3.18615 34.0236 3.69267 3.28028 -24.67315 -6.63376 3.66379 2.55894
-0.01332 -0.00035 -0.00346 26.36226 -18.62811 -4.20609 43.48626 -0.70073 -6.99278 -12.07345 4.66417 -0.40216 -21.21448 -6.69923 -0.32416 29.10566 98.20095 9.85882 1.05839 -23.94411 4.78784 6.32917 32.40726 -131.13653 24.50673 -5.11255 28.3284 -2.39052 -7.35426 -20.53174 -6.78603 -4.75544 -3.17093 33.99882 3.70959 3.51204 -24.69646 -6.62783 3.65656 2.55477
-0.01431 -0.0004 -0.00469 26.15664 -18.59354 -4.23339 43.44589 -0.67307 -6.99908 -12.09702 4.81737 -0.40292 -21.20003 -6.72174 -0.16957 29.14375 98.27401 9.91265 1.04389 -23.98791 4.39217 7.61165 32.55639 -135.78228 25.85172 -5.87025 28.33825 -2.45126 -7.29904 -20.52334 -6.77518 -4.732 -3.15889 33.97966 3.70102 3.6794 -24.71846 -6.624 3.65984 2.55665
-0.01565 -0.00053 -0.00654 25.90359 -18.57701 -4.27647 43.40469 -0.65744 -7.10492 -12.1106 5.00838 -0.40377 -21.2116 -6.72297 -0.11381 29.29327 98.25451 9.91348 1.03816 -24.21186 4.58826 7.22883 32.98083 -135.57712 25.94218 -5.74602 28.38949 -2.50869 -7.12223 -20.51965 -6.77981 -4.72461 -3.15546 33.97821 3.62341 3.65199 -24.73571 -6.62637 3.69231 2.57545
-0.01714 -0.0007 -0.00863 25.62721 -18.56606 -4.32523 43.36149 -0.64468 -7.24368 -12.12456 5.21585 -0.40469 -21.2332 -6.71586 -0.10178 29.48738 98.2026 9.89535 1.03507 -24.53044 5.01659 6.25297 33.56953 -133.64183 25.57591 -5.31145 28.45962 -2.56625 -6.89538 -20.52209 -6.79022 -4.7228 -3.155 33.98313 3.52012 3.55954 -24.75199 -6.63094 3.73555 2.60041
-0.01858 -0.00086 -0.01063 25.3561 -18.55206 -4.37144 43.3178 -0.62917 -7.36379 -12.14269 5.41781 -0.40555 -21.24939 -6.713 -0.08 29.66237 98.16399 9.88671 1.02983 -24.83634 5.36553 5.53175 34.15012 -132.4492 25.39692 -5.01596 28.52462 -2.62479 -6.68893 -20.52458 -6.79778 -4.71806 -3.15293 33.98576 3.42827 3.50077 -24.76928 -6.63457 3.77422 2.62267
-0.01995 -0.00098 -0.01259 25.10745 -18.54033 -4.41774 43.28106 -0.61995 -7.50121 -12.14248 5.61216 -0.4064 -21.26888 -6.7072 -0.01567 29.83101 98.13523 9.87576 1.02879 -25.00868 5.5963 4.88157 34.44076 -131.47145 25.3092 -4.73436 28.57229 -2.67797 -6.48736 -20.51068 -6.80665 -4.71551 -3.15229 33.98512 3.33746 3.42562 -24.78359 -6.63788 3.8114 2.64444
-0.02152 -0.00121 -0.01468 24.80588 -18.52487 -4.46494 43.22808 -0.59797 -7.60843 -12.18074 5.82596 -0.40741 -21.28468 -6.70605 -0.05023 30.02626 98.0768 9.86389 1.01976 -25.48878 6.13377 3.9462 35.38693 -129.63825 24.92551 -4.35028 28.66374 -2.74357 -6.2674 -20.53783 -6.8139 -4.70918 -3.14906 33.99329 3.23819 3.36922 -24.80458 -6.6424 3.85429 2.66873
